<svg width="59" height="52" viewBox="1787.243 1083.700 58.767 51.785" fill="none" xmlns="http://www.w3.org/2000/svg">
  <path d="M1816.17 1103.16V1091.69C1816.17 1090.6 1815.29 1089.7 1814.18 1089.7C1813.7 1089.7 1813.23 1089.88 1812.87 1090.2L1793.91 1107.05C1793.1 1107.78 1793.01 1109.04 1793.74 1109.86L1793.82 1109.94L1812.78 1128.9C1813.56 1129.68 1814.81 1129.68 1815.59 1128.9C1815.97 1128.54 1816.17 1128.02 1816.17 1127.5V1116.4C1819.74 1116.19 1827.24 1116.18 1838.66 1116.38C1839.39 1116.38 1840 1115.81 1840.01 1115.09V1104.51C1840.01 1103.78 1839.42 1103.19 1838.68 1103.19C1825.09 1103.33 1817.59 1103.31 1816.19 1103.19" fill="#006726"/>
</svg>
