<svg width="76" height="44" viewBox="680.643 657.559 75.568 43.772" fill="none" xmlns="http://www.w3.org/2000/svg">
  <path d="M699.89 668.857H694.591C693.119 668.857 691.942 667.68 691.942 666.208C691.942 664.736 693.137 663.559 694.591 663.559H699.89C701.362 663.559 702.539 664.754 702.539 666.208C702.539 667.663 701.362 668.857 699.89 668.857ZM699.89 682.103H689.292C687.82 682.103 686.643 680.925 686.643 679.454C686.643 677.982 687.82 676.805 689.292 676.805H699.89C701.362 676.805 702.539 677.982 702.539 679.454C702.539 680.925 701.362 682.103 699.89 682.103ZM699.89 695.331H697.24C695.786 695.331 694.591 694.154 694.591 692.682C694.591 691.21 695.769 690.033 697.24 690.033H699.89C701.362 690.033 702.539 691.21 702.539 692.682C702.539 694.154 701.362 695.331 699.89 695.331Z" fill="#B3B3B3"/>
  <path d="M713.137 663.559H744.912C747.839 663.559 750.211 665.931 750.211 668.857V690.033C750.211 692.959 747.839 695.331 744.912 695.331H713.137C710.21 695.331 707.838 692.959 707.838 690.033V668.857C707.838 665.931 710.21 663.559 713.137 663.559ZM742.488 669.048L729.016 676.06L715.544 669.048C714.747 668.632 713.743 668.927 713.31 669.688C712.877 670.468 713.171 671.42 713.985 671.835L728.237 679.246C728.721 679.506 729.31 679.506 729.795 679.246L744.046 671.835C744.843 671.42 745.137 670.45 744.722 669.688C744.289 668.909 743.302 668.632 742.488 669.048Z" fill="#010202"/>
</svg>
