<svg width="65" height="65" viewBox="2641.810 359.664 64.960 64.948" fill="none" xmlns="http://www.w3.org/2000/svg">
  <path d="M2674.28 418.612C2659.65 418.612 2647.81 406.751 2647.81 392.138C2647.81 377.524 2659.65 365.664 2674.28 365.664C2688.91 365.664 2700.77 377.524 2700.77 392.138C2700.77 406.751 2688.91 418.612 2674.28 418.612Z" fill="#FF99B3"/>
  <path d="M2674.38 388.485L2681.86 380.987C2682.9 379.949 2684.58 379.949 2685.62 380.987C2686.64 382.026 2686.64 383.706 2685.62 384.727L2678.12 392.224L2685.62 399.704C2686.64 400.743 2686.64 402.423 2685.62 403.444C2684.58 404.483 2682.9 404.483 2681.86 403.444L2674.38 395.947L2666.89 403.444C2665.85 404.483 2664.19 404.483 2663.15 403.444C2662.11 402.405 2662.11 400.726 2663.15 399.704L2670.63 392.224L2663.15 384.727C2662.11 383.688 2662.11 382.009 2663.15 380.987C2664.19 379.966 2665.85 379.949 2666.89 380.987" fill="#FF0041"/>
</svg>
