<svg width="65" height="65" viewBox="503.080 1218.960 65.409 64.970" fill="none" xmlns="http://www.w3.org/2000/svg">
  <path d="M561.362 1238.47L537.939 1262.88C537.212 1263.64 536.208 1264.08 535.152 1264.09L525.301 1264.3L525.509 1254.4C525.526 1253.38 525.942 1252.39 526.686 1251.66L550.646 1227.84C552.204 1226.3 554.714 1226.3 556.255 1227.84L561.327 1232.89C562.851 1234.42 562.885 1236.89 561.379 1238.45" fill="#0169CB"/>
  <path d="M551.442 1277.93H519.675C513.823 1277.93 509.08 1273.18 509.08 1267.33V1235.56C509.08 1229.71 513.823 1224.96 519.675 1224.96H537.939C539.393 1224.96 540.588 1226.14 540.588 1227.61C540.588 1229.08 539.393 1230.26 537.939 1230.26H519.675C516.749 1230.26 514.377 1232.63 514.377 1235.56V1267.33C514.377 1270.26 516.749 1272.63 519.675 1272.63H551.442C554.368 1272.63 556.74 1270.26 556.74 1267.33V1254.09C556.74 1252.63 557.917 1251.44 559.388 1251.44C560.86 1251.44 562.037 1252.61 562.037 1254.09V1267.33C562.037 1273.18 557.294 1277.93 551.442 1277.93Z" fill="#99C3EA"/>
</svg>
